HIERARCHY
ROOT hip
{
	OFFSET 0.000000 0.000000 0.000000 
	CHANNELS 6 Xposition Yposition Zposition Xrotation Zrotation Yrotation
	JOINT abdomen
	{
		OFFSET 0.000000 3.402643 0.000000 
		CHANNELS 3 Xrotation Zrotation Yrotation
		JOINT chest
		{
			OFFSET 0.000000 8.438565 -0.680529 
			CHANNELS 3 Xrotation Zrotation Yrotation
			JOINT neck
			{
				OFFSET 0.000000 10.207942 -0.272212 
				CHANNELS 3 Xrotation Zrotation Yrotation
				JOINT head
				{
					OFFSET 0.000000 3.130431 0.000000 
					CHANNELS 3 Xrotation Zrotation Yrotation
					End Site
					{
						OFFSET 0.000000 3.130435 0.000000 
					}
				}
			}
			JOINT lCollar
			{
				OFFSET 3.470700 6.669187 -0.816635 
				CHANNELS 3 Yrotation Zrotation Xrotation
				JOINT lShldr
				{
					OFFSET 3.198488 0.000000 0.000000 
					CHANNELS 3 Zrotation Yrotation Xrotation
					JOINT lForeArm
					{
						OFFSET 10.139888 0.000000 0.000000 
						CHANNELS 3 Yrotation Zrotation Xrotation
						JOINT lHand
						{
							OFFSET 8.370511 0.000000 0.000000 
							CHANNELS 3 Zrotation Yrotation Xrotation
							End Site
							{
								OFFSET 4.083176 0.000000 0.000000 
							}
						}
					}
				}
			}
			JOINT rCollar
			{
				OFFSET -3.470700 6.669187 -0.816635 
				CHANNELS 3 Yrotation Zrotation Xrotation
				JOINT rShldr
				{
					OFFSET -3.198488 0.000000 0.000000 
					CHANNELS 3 Zrotation Yrotation Xrotation
					JOINT rForeArm
					{
						OFFSET -10.139888 0.000000 0.000000 
						CHANNELS 3 Yrotation Zrotation Xrotation
						JOINT rHand
						{
							OFFSET -8.370511 0.000000 0.000000 
							CHANNELS 3 Zrotation Yrotation Xrotation
							End Site
							{
								OFFSET -4.083176 0.000000 0.000000 
							}
						}
					}
				}
			}
		}
	}
	JOINT lThigh
	{
		OFFSET 5.308129 -1.633274 1.361059 
		CHANNELS 3 Xrotation Zrotation Yrotation
		JOINT lShin
		{
			OFFSET -2.041588 -20.007561 0.000000 
			CHANNELS 3 Xrotation Zrotation Yrotation
			JOINT lFoot
			{
				OFFSET 0.000000 -19.190928 -1.224953 
				CHANNELS 3 Xrotation Yrotation Zrotation
				End Site
				{
					OFFSET 0.000000 -2.449906 4.627600 
				}
			}
		}
	}
	JOINT rThigh
	{
		OFFSET -5.308129 -1.633274 1.361059 
		CHANNELS 3 Xrotation Zrotation Yrotation
		JOINT rShin
		{
			OFFSET 2.041588 -20.007561 0.000000 
			CHANNELS 3 Xrotation Zrotation Yrotation
			JOINT rFoot
			{
				OFFSET 0.000000 -19.190928 -1.224953 
				CHANNELS 3 Xrotation Yrotation Zrotation
				End Site
				{
					OFFSET 0.000000 -2.449906 4.627600 
				}
			}
		}
	}
}
MOTION
Frames: 10
Frame Time: 0.033333
-18.134424 47.715137 3.367450 13.699100 14.411800 -167.003998 0.322173 -0.513729 0.664108 4.473560 1.111380 1.231270 25.402000 10.878100 -2.889190 4.869320 20.694201 -8.377610 4.974590 27.674639 -2.024773 -12.785000 14.125400 -14.882400 -29.439600 4.622220 3.799120 4.688010 31.555401 8.651910 -5.562175 6.405498 9.850370 58.447201 -20.417999 -16.105000 8.107270 -3.114590 4.269780 -15.613800 -42.876999 12.327200 -3.449771 3.509155 -3.583854 44.737606 1.810580 2.099299 -4.107708 2.383904 -3.095159 -13.685254 -9.711915 -3.902733 122.451797 -1.172490 -0.765801 27.441624 -1.154140 -1.060204 
-18.268330 47.985085 3.666359 14.913300 14.497600 -161.406998 0.302671 -0.466373 0.410362 4.463240 1.018000 -0.126747 27.682100 10.760200 -2.981680 3.707210 24.988199 -8.977610 0.879540 29.997078 -0.864245 -7.256050 10.690000 -15.198200 -28.109200 4.200770 2.166390 4.250350 34.056400 5.797870 -5.829289 6.558008 10.168962 66.376503 -21.237900 -19.316299 7.525300 -2.940660 4.129120 -15.519800 -43.845200 13.011700 -3.716025 4.058036 -3.233006 45.478355 1.784054 2.010855 -2.829090 1.610407 -3.645507 -12.904910 -9.781197 -1.315923 124.127449 -1.271477 -1.723703 27.281898 -2.083557 -0.891776 
-18.273722 47.508095 3.906010 16.081100 14.214300 -158.050995 0.283180 -0.399655 0.127274 4.424390 0.991438 -0.790979 29.059500 10.311400 -2.825190 3.063810 27.248199 -8.973660 -1.905531 29.986282 0.180533 -1.581410 7.940900 -15.192200 -27.761200 4.052620 1.001590 4.919030 38.837799 4.511890 -6.009329 6.808439 10.382551 71.530899 -22.121300 -22.070999 8.286680 -3.221740 4.343130 -15.480500 -42.547600 12.071400 -3.915488 4.257380 -2.375573 48.908142 1.832472 2.026798 -5.104581 1.688860 -3.309536 -12.581165 -9.429060 1.975830 126.788841 -1.358010 -2.104981 28.569246 -2.610135 -0.820446 
-18.144644 46.424026 4.099288 17.368900 13.743900 -156.589996 0.263692 -0.313235 -0.126638 4.424430 1.029300 -0.818789 29.232401 9.874810 -2.660030 3.140210 26.957399 -8.629870 -3.460794 29.954737 0.946479 3.604170 5.676390 -15.536100 -28.080500 3.808030 -0.292667 4.108490 40.528801 2.115150 -6.274469 6.775956 10.381330 74.814598 -23.873899 -25.472099 11.049300 -3.448780 3.999720 -14.727000 -42.304401 10.773600 -3.812005 4.241484 -1.614415 53.537876 1.997908 2.116049 -10.392260 2.079507 -2.167825 -12.630265 -8.775768 5.689152 130.081131 -1.345941 -1.463650 31.241570 -2.877581 -1.137167 
-17.893908 44.991367 4.300363 18.610001 13.102100 -156.044006 0.253964 -0.226476 -0.321986 4.424500 1.096050 -0.855258 28.970501 9.031710 -2.326660 3.159060 24.862400 -7.764260 -4.553259 29.921638 1.521643 7.704390 4.055150 -17.373699 -29.229200 3.572530 -1.416110 2.486450 40.090000 -0.486112 -6.712733 6.459698 10.201579 76.458603 -26.608999 -29.611500 15.606000 -3.697030 3.386310 -13.583400 -42.928600 9.578370 -3.544062 4.042082 -1.256659 58.114609 2.290210 2.247151 -17.875250 2.287823 -0.449523 -13.006881 -8.007405 9.137315 133.573273 -1.247261 -0.010911 34.606380 -2.942061 -1.681833 
-17.542175 43.569157 4.546910 19.574699 12.233100 -155.897003 0.253991 -0.149087 -0.449017 4.405010 1.123780 -0.893587 28.551399 8.075110 -1.770010 3.012970 21.841101 -6.510210 -6.016059 29.863173 2.056399 10.148600 2.971970 -21.082600 -31.400101 3.900990 -1.205580 2.631680 40.185200 -0.396003 -7.256332 5.967794 9.859964 76.333199 -29.952900 -33.639500 21.189400 -5.080990 4.760570 -14.249700 -39.330101 8.207240 -3.290414 3.681026 -1.062088 61.893044 2.582611 2.217336 -25.836725 2.310862 1.666272 -13.803144 -7.185992 11.530034 136.898285 -1.120072 1.580762 37.332478 -3.038410 -2.212902 
-17.126411 42.539352 4.848730 20.252100 11.075200 -155.735001 0.273527 -0.110138 -0.468621 4.356170 1.103900 -0.905043 28.423100 7.274750 -0.997113 2.907550 18.654499 -5.092570 -8.217680 29.744602 2.640807 10.313100 1.983310 -25.777500 -34.305401 5.028790 0.384279 5.515140 41.211498 1.209620 -7.912837 5.136439 8.827913 74.514397 -34.127602 -36.688599 26.713900 -7.566950 7.899570 -18.523701 -28.387501 5.334980 -3.059535 3.254750 -0.841397 63.857780 2.806897 1.980396 -31.398285 2.151755 3.659232 -15.150319 -6.151330 12.124412 139.617004 -1.041573 2.618241 37.809662 -3.727067 -2.856659 
-16.690538 42.151653 5.188767 20.905399 9.612060 -155.423996 0.312567 -0.119281 -0.361268 4.297560 1.083640 -0.926416 28.885401 6.392050 -0.196183 3.075230 15.761100 -3.677900 -10.938746 29.547173 3.344173 7.667520 0.573513 -29.996799 -37.615799 7.141710 3.166580 12.176300 43.479099 2.137440 -8.548423 4.191365 7.679963 71.191902 -38.428600 -38.554100 29.545099 -7.573480 6.493630 -27.118500 -14.244600 3.543660 -2.674301 2.830569 -0.678158 63.877106 2.933952 1.882329 -33.129307 1.705013 4.548483 -16.861620 -4.940980 10.620195 141.045761 -1.100204 2.801598 34.738739 -5.231953 -4.192441 
-16.271181 42.448013 5.537981 21.790001 7.890060 -155.244995 0.361351 -0.176573 -0.136803 4.268140 1.071570 -0.742269 29.829700 5.605480 0.552806 3.796800 12.988700 -2.435940 -13.372391 26.053053 3.332237 2.313780 -1.225900 -32.390099 -40.398701 10.106500 7.595010 22.042999 44.890701 2.575380 -9.029469 3.375711 6.990838 66.898399 -42.538700 -38.998600 30.951099 -7.453980 5.258880 -31.987101 -6.202490 1.085940 -1.942189 2.420476 -0.603887 62.876606 2.904656 1.765922 -31.909777 1.284948 4.108988 -18.382296 -3.906027 7.492005 140.366776 -1.308761 1.942472 27.212845 -6.243651 -6.461217 
-15.843846 43.344467 5.902531 22.886299 6.063800 -156.283005 0.400374 -0.263106 0.097365 4.268140 1.112660 0.769520 30.696800 5.879900 1.237540 5.326910 9.561410 -1.721040 -15.456477 21.611332 2.960704 -4.924940 -2.701580 -32.077702 -38.292900 10.978000 8.904480 33.350498 38.065300 3.111060 -9.268332 2.718008 6.898416 61.881401 -46.323101 -38.032200 30.893200 -7.338740 4.656880 -34.030800 -3.168140 -0.314845 -0.886945 2.028035 -0.109771 60.235344 2.670735 1.691287 -27.544930 0.740835 2.455818 -19.280151 -2.597539 4.416019 136.684036 -1.572428 0.482979 16.107182 -5.100441 -8.210331 
